
<svg id="svg_7" data-name="SVG 7" viewBox="0 0 237.72 599.01">
  <defs>
    <style>
      .cls-1 {
        fill: #603813;
      }
    </style>
  </defs>
  <polygon class="cls-1" points="91.16 433.43 15.11 462.35 57.01 296.08 27.5 127.17 101.21 161.63 151.15 47.73 154.72 211.05 224.14 302.26 148.17 388.11 132.55 550.71 91.16 433.43"/>
  <path d="m141.69,95.45l2.46,112.41.15,6.83,4.13,5.43,62.13,81.64-67.99,76.83-4.52,5.11-.65,6.8-10.75,111.92-22-62.34-7.16-20.29-20.11,7.65-47.16,17.93,36.43-144.56,1.09-4.34-.77-4.41-25.65-146.85,45.71,21.37,19.49,9.11,8.64-19.7,26.54-60.54M160.61,0l-64.7,147.56L13.69,109.12l32.59,186.56L0,479.33l84.84-32.26,53.62,151.94,19.84-206.5,79.42-89.74-72.58-95.36L160.61,0h0Z"/>
</svg>