
<svg id="svg_4" data-name="SVG 4" viewBox="0 0 540 201">
  <defs>
    <style>
      .cls-1 {
        fill: #fbb03b;
      }
    </style>
  </defs>
  <path class="cls-1" d="m270,199.5c-71.95,0-139.56-10.42-190.4-29.34C29.24,151.41,1.5,126.67,1.5,100.5S29.24,49.59,79.6,30.84C130.44,11.92,198.05,1.5,270,1.5s139.56,10.42,190.4,29.34c50.37,18.75,78.1,43.49,78.1,69.66s-27.74,50.91-78.1,69.66c-50.83,18.92-118.45,29.34-190.4,29.34Z"/>
  <path d="m270,3c71.77,0,139.2,10.39,189.87,29.25,24.45,9.1,43.6,19.66,56.93,31.39,13.4,11.8,20.2,24.2,20.2,36.87s-6.8,25.07-20.2,36.87c-13.32,11.72-32.48,22.28-56.93,31.39-50.67,18.86-118.1,29.25-189.87,29.25s-139.2-10.39-189.87-29.25c-24.45-9.1-43.6-19.66-56.93-31.39-13.4-11.8-20.2-24.2-20.2-36.87s6.8-25.07,20.2-36.87c13.32-11.72,32.48-22.28,56.93-31.39C130.8,13.39,198.23,3,270,3m0-3C120.88,0,0,45,0,100.5s120.88,100.5,270,100.5,270-45,270-100.5S419.12,0,270,0h0Z"/>
</svg>