
<svg id="svg_3" data-name="SVG 3" viewBox="0 0 319 319">
  <defs>
    <style>
      .cls-1 {
        fill: lime;
      }
    </style>
  </defs>
  <circle class="cls-1" cx="159.5" cy="159.5" r="158.5"/>
  <path d="m159.5,2c42.07,0,81.62,16.38,111.37,46.13,29.75,29.75,46.13,69.3,46.13,111.37s-16.38,81.62-46.13,111.37c-29.75,29.75-69.3,46.13-111.37,46.13s-81.62-16.38-111.37-46.13C18.38,241.12,2,201.57,2,159.5S18.38,77.88,48.13,48.13C77.88,18.38,117.43,2,159.5,2m0-2C71.41,0,0,71.41,0,159.5s71.41,159.5,159.5,159.5,159.5-71.41,159.5-159.5S247.59,0,159.5,0h0Z"/>
</svg>